P3
# The P3 means colors are in ASCII, then 10 columns and 5 rows,
# then 255   for max color, then RGB triplets
10 5
255  
255 0    0    255 0    0    255 0    0    255 0    0    255 0    0    255 0    0    255 0    0    255 0    0    255 0    0    255 0    0  
0   0  255    0   0  255    0   0  255    0   0  255    0   0  255    0   0  255    0  0  255     0   0  255    0   0  255    0   0  255
255 0    0    255 0    0    255 0    0    255 0    0    255 0    0    255 0    0    255 0    0    255 0    0    255 0    0    255 0    0  
0   0  255    0   0  255    0   0  255    0   0  255    0   0  255    0   0  255    0  0  255     0   0  255    0   0  255    0   0  255
255 0    0    255 0    0    255 0    0    255 0    0    255 0    0    255 0    0    255 0    0    255 0    0    255 0    0    255 0    0  
